<?xml version="1.0" standalone="no"?>
<!DOCTYPE svg PUBLIC "-//W3C//DTD SVG 20010904//EN"
 "http://www.w3.org/TR/2001/REC-SVG-20010904/DTD/svg10.dtd">
<svg version="1.0" xmlns="http://www.w3.org/2000/svg"
 width="700.000000pt" height="700.000000pt" viewBox="0 0 700.000000 700.000000"
 preserveAspectRatio="xMidYMid meet">
<metadata>
Created by potrace 1.11, written by Peter Selinger 2001-2013
</metadata>
<g transform="translate(0.000000,700.000000) scale(0.100000,-0.100000)"
fill="#000000" stroke="none">
<path d="M4989 6596 c-2 -2 -42 -7 -89 -11 -47 -4 -94 -9 -105 -10 -11 -2 -28
-4 -39 -4 -17 -1 -18 -7 -12 -78 15 -178 20 -208 33 -200 5 3 37 7 73 11 207
20 190 16 185 44 -2 14 -7 58 -11 99 -3 41 -8 82 -9 92 -2 9 -4 26 -4 39 -1
20 -11 28 -22 18z"/>
<path d="M2778 6177 c-40 -9 -97 -65 -99 -95 0 -9 -2 -24 -4 -33 -5 -30 33
-98 67 -119 57 -35 125 -24 172 27 51 55 43 150 -17 195 -39 30 -70 37 -119
25z"/>
<path d="M5805 6043 c-59 -13 -584 -125 -605 -129 -14 -3 -54 -12 -90 -20 -36
-8 -81 -17 -100 -20 -19 -3 -44 -8 -55 -12 -11 -3 -22 -6 -25 -7 -36 -7 -99
-20 -190 -40 -41 -9 -84 -18 -95 -21 -11 -2 -166 -35 -345 -73 -318 -68 -351
-75 -407 -86 -16 -3 -36 -8 -45 -11 -9 -3 -27 -7 -40 -9 -13 -3 -45 -9 -73
-15 -27 -6 -60 -12 -73 -15 -13 -2 -31 -6 -40 -9 -9 -3 -28 -7 -42 -10 -14 -3
-36 -7 -50 -10 -38 -8 -122 -26 -148 -31 -13 -2 -31 -6 -40 -9 -9 -3 -32 -8
-51 -11 -19 -3 -102 -21 -185 -39 -132 -29 -220 -47 -236 -48 -3 0 -15 -4 -26
-9 -12 -4 -41 -11 -65 -14 -24 -4 -46 -8 -50 -10 -3 -2 -21 -7 -40 -10 -28 -5
-178 -37 -659 -140 -58 -12 -107 -28 -120 -38 -17 -13 -67 -80 -62 -84 1 -2 2
-673 2 -1493 l0 -1490 -53 41 c-120 92 -303 158 -456 164 -432 15 -790 -282
-856 -710 -7 -44 -8 -179 -1 -210 2 -11 7 -40 11 -65 28 -171 143 -359 296
-481 154 -123 307 -174 519 -174 111 1 148 5 207 23 248 77 426 226 526 442
36 75 60 151 73 225 4 22 8 570 8 1217 1 647 5 1180 9 1185 4 4 15 8 23 9 12
2 178 37 229 49 6 1 28 5 50 9 22 5 65 14 95 21 30 8 69 16 85 19 34 6 27 4
253 52 92 19 178 37 192 39 14 3 34 7 45 9 11 3 97 21 190 40 94 19 312 65
485 101 173 37 324 68 335 71 11 2 52 10 90 18 39 9 81 17 95 20 14 2 124 25
245 51 121 26 231 49 245 51 13 3 56 12 95 20 38 9 79 17 90 20 11 2 119 24
240 49 121 25 230 48 243 51 116 24 219 44 228 44 7 0 10 -233 10 -785 0 -432
-3 -785 -7 -785 -4 0 -10 4 -13 9 -3 5 -32 26 -63 47 -153 102 -296 144 -478
140 -146 -3 -227 -22 -350 -83 -110 -54 -197 -122 -269 -209 -193 -233 -243
-543 -135 -825 26 -67 84 -170 122 -215 48 -58 152 -154 165 -154 5 0 16 -8
26 -19 9 -10 51 -34 94 -54 361 -170 775 -71 1014 243 58 75 118 197 144 290
18 62 19 156 21 1940 3 1847 3 1875 -16 1907 -32 52 -90 78 -146 66z m-109
-770 l-1 -458 -155 -32 c-181 -37 -451 -94 -465 -97 -24 -6 -122 -26 -145 -30
-14 -2 -142 -29 -285 -60 -143 -30 -271 -57 -285 -59 -29 -6 -809 -168 -945
-197 -49 -11 -101 -21 -115 -24 -14 -3 -68 -14 -120 -25 -52 -11 -106 -22
-120 -25 -14 -2 -198 -41 -410 -86 -212 -45 -398 -84 -415 -86 -16 -3 -45 -9
-64 -14 -19 -5 -37 -7 -40 -4 -7 6 -8 883 -1 894 3 4 82 24 175 43 94 20 222
47 285 61 228 49 408 88 565 121 88 19 297 63 463 99 167 36 314 68 325 70 12
2 119 25 237 51 118 26 224 48 235 51 80 16 123 25 140 28 139 29 232 50 345
75 74 16 146 32 160 35 14 2 122 25 240 51 118 26 224 48 235 51 11 2 49 10
85 17 36 8 68 13 71 11 3 -2 5 -209 5 -461z m-421 -2403 c230 -52 409 -267
419 -503 10 -219 -114 -429 -305 -520 -92 -43 -149 -56 -258 -55 -239 3 -452
174 -515 413 -20 76 -15 230 9 300 93 271 373 428 650 365z m-3790 -840 c271
-104 417 -379 346 -654 -27 -102 -70 -177 -147 -252 -213 -211 -551 -210 -769
3 -296 288 -163 795 240 915 86 25 247 19 330 -12z"/>
<path d="M6329 4523 c-69 -27 -100 -111 -69 -182 35 -76 126 -104 197 -60 43
27 63 66 63 123 0 95 -98 156 -191 119z"/>
<path d="M880 3988 c-36 -5 -83 -10 -105 -11 -40 -2 -40 -3 -40 -42 1 -22 4
-78 9 -125 5 -47 9 -91 9 -98 0 -11 13 -13 56 -8 31 3 85 8 121 11 98 9 103
12 96 48 -5 28 -14 112 -21 187 -1 14 -3 30 -3 36 -2 12 -33 13 -122 2z"/>
<path d="M3990 3423 c-86 -44 -106 -150 -40 -218 80 -83 216 -40 235 74 8 46
-19 108 -58 134 -39 25 -97 30 -137 10z"/>
<path d="M1402 3015 c-77 -34 -106 -108 -72 -184 45 -99 176 -109 238 -18 73
108 -47 255 -166 202z"/>
<path d="M3169 2346 c-2 -2 -40 -7 -84 -11 -44 -4 -89 -9 -100 -11 -11 -1 -30
-3 -42 -3 -15 -1 -21 -6 -19 -18 2 -10 7 -54 11 -98 11 -127 15 -149 27 -156
7 -4 15 -6 18 -4 3 2 35 6 70 9 167 16 185 19 176 34 -4 7 -9 53 -22 182 -4
36 -8 68 -11 73 -5 8 -17 9 -24 3z"/>
<path d="M2698 1220 c-188 -58 -300 -216 -293 -411 4 -91 30 -162 84 -232 173
-225 508 -212 667 24 145 217 48 517 -198 611 -72 27 -187 31 -260 8z m198
-285 c54 -35 68 -133 28 -189 -27 -35 -86 -60 -128 -53 -127 21 -161 179 -53
250 44 29 102 26 153 -8z"/>
<path d="M5797 1074 c-1 -2 -36 -6 -78 -9 -41 -3 -84 -8 -95 -10 -10 -2 -29
-4 -42 -4 -20 -1 -22 -5 -17 -48 2 -27 8 -77 11 -113 4 -36 8 -74 10 -85 1
-11 3 -24 3 -28 1 -5 9 -6 19 -3 9 2 51 8 92 12 41 4 86 8 100 9 14 2 33 3 44
4 20 1 20 -11 0 171 -9 89 -14 107 -29 107 -8 0 -16 -2 -18 -3z"/>
</g>
</svg>
