<svg version="1.1" xmlns="http://www.w3.org/2000/svg" xmlns:xlink="http://www.w3.org/1999/xlink" preserveAspectRatio="xMidYMid meet" viewBox="0 0 640 640" width="640" height="640"><defs><path d="M179.2 162.83C173.42 164.06 169.23 169.23 169.23 175.14C169.23 202.18 169.23 418.5 169.23 445.54C155.94 433.6 138.34 426.34 119.02 426.34C77.42 426.34 43.69 460.18 43.69 501.66C43.69 543.26 77.54 576.98 119.02 576.98C160.49 576.98 194.34 543.14 194.34 501.66C194.34 487.79 194.34 418.41 194.34 293.54L520.86 225.35C520.86 312.27 520.86 360.56 520.86 370.22C507.57 358.28 489.97 351.02 470.65 351.02C429.05 351.02 395.32 384.86 395.32 426.34C395.32 467.94 429.17 501.66 470.65 501.66C512.12 501.66 545.97 467.82 545.97 426.34C545.97 322.09 545.97 200.62 545.97 99.82C545.97 91.82 538.58 85.78 530.83 87.51C530.83 87.51 214.36 155.3 179.2 162.83ZM68.8 501.66C68.8 473.97 91.32 451.45 119.02 451.45C146.71 451.45 169.23 473.97 169.23 501.66C169.23 529.35 146.71 551.88 119.02 551.88C91.32 551.88 68.8 529.35 68.8 501.66ZM194.34 185.23L520.86 115.32L520.86 199.75L194.34 267.94L194.34 185.23ZM420.43 426.34C420.43 398.65 442.95 376.12 470.65 376.12C498.34 376.12 520.86 398.65 520.86 426.34C520.86 454.03 498.34 476.55 470.65 476.55C442.95 476.55 420.43 454.03 420.43 426.34Z" id="bamZm9Scl"></path><radialGradient id="gradientn2k1zbRKKB" gradientUnits="userSpaceOnUse" cx="294.83" cy="87.21" dx="248.79" dy="620" r="534.78"><stop style="stop-color: #d6156d;stop-opacity: 1" offset="0%"></stop><stop style="stop-color: #a70851;stop-opacity: 1" offset="100%"></stop></radialGradient><path d="M269.66 85.91C268.92 79.02 262.77 73.97 255.88 74.71C248.98 75.45 243.94 81.6 244.68 88.49C245.42 95.38 251.57 100.43 258.46 99.69C265.35 98.95 270.4 92.8 269.66 85.91Z" id="b35TC5lXE"></path><radialGradient id="gradientgl3Bche8o" gradientUnits="userSpaceOnUse" cx="257.17" cy="74.64" dx="257.17" dy="99.76" r="25.13"><stop style="stop-color: #d6156d;stop-opacity: 1" offset="0%"></stop><stop style="stop-color: #b2115a;stop-opacity: 1" offset="100%"></stop></radialGradient><path d="M582.4 225.48C575.51 226.22 570.46 232.37 571.2 239.26C571.94 246.15 578.09 251.2 584.98 250.46C591.88 249.72 596.92 243.57 596.18 236.68C595.45 229.78 589.29 224.74 582.4 225.48Z" id="b1U5fOQYvE"></path><radialGradient id="gradientaHXspHpJ" gradientUnits="userSpaceOnUse" cx="583.69" cy="225.41" dx="583.69" dy="250.53" r="25.13"><stop style="stop-color: #faf200;stop-opacity: 1" offset="0%"></stop><stop style="stop-color: #bfad0d;stop-opacity: 1" offset="100%"></stop></radialGradient><path d="M134.15 388.43C141.05 387.69 146.09 381.54 145.35 374.65C144.62 367.75 138.46 362.71 131.57 363.45C124.8 364.18 119.75 370.34 120.37 377.23C121.11 384.12 127.26 389.17 134.15 388.43Z" id="a1HJO4RpWH"></path><radialGradient id="gradienta3WpaV4PJX" gradientUnits="userSpaceOnUse" cx="132.87" cy="363.37" dx="132.87" dy="388.5" r="25.13"><stop style="stop-color: #faf200;stop-opacity: 1" offset="0%"></stop><stop style="stop-color: #bfad0d;stop-opacity: 1" offset="100%"></stop></radialGradient><path d="M382.65 337.11C381.91 330.22 375.75 325.17 368.86 325.91C361.97 326.65 356.92 332.8 357.66 339.69C358.4 346.46 364.55 351.51 371.45 350.89C378.34 350.15 383.38 344 382.65 337.11Z" id="boOJFLK8l"></path><radialGradient id="gradientc15GfzPIWD" gradientUnits="userSpaceOnUse" cx="370.15" cy="325.84" dx="370.15" dy="350.94" r="25.11"><stop style="stop-color: #faf200;stop-opacity: 1" offset="0%"></stop><stop style="stop-color: #bfad0d;stop-opacity: 1" offset="100%"></stop></radialGradient><path d="M460.55 62.03L457.97 36.92L432.98 39.51L435.57 64.49L460.55 62.03Z" id="b6RF5ANV"></path><radialGradient id="gradientc5Q6ZHVyME" gradientUnits="userSpaceOnUse" cx="446.77" cy="36.92" dx="446.77" dy="64.49" r="27.57"><stop style="stop-color: #9f1ae9;stop-opacity: 1" offset="0%"></stop><stop style="stop-color: #591967;stop-opacity: 1" offset="100%"></stop></radialGradient><path d="M219.57 564.43C219.57 585.23 236.43 602.09 257.23 602.09C278.03 602.09 294.89 585.23 294.89 564.43C294.89 543.63 277.91 526.77 257.23 526.77C236.43 526.77 219.57 543.63 219.57 564.43ZM244.68 564.43C244.68 557.54 250.34 551.88 257.23 551.88C264.12 551.88 269.78 557.54 269.78 564.43C269.78 571.32 264.12 576.98 257.23 576.98C250.34 576.98 244.68 571.32 244.68 564.43Z" id="a1X65JG813"></path><radialGradient id="gradienta1Uz9T0HrR" gradientUnits="userSpaceOnUse" cx="257.23" cy="526.77" dx="257.23" dy="602.09" r="75.32"><stop style="stop-color: #9f1ae9;stop-opacity: 1" offset="0%"></stop><stop style="stop-color: #2d1537;stop-opacity: 1" offset="100%"></stop></radialGradient><path d="M294.83 450.65L292.25 425.55L267.26 428.13L269.85 453.11L294.83 450.65Z" id="a1iuEOFlYa"></path><radialGradient id="gradientb3rHpTb4mc" gradientUnits="userSpaceOnUse" cx="281.05" cy="425.55" dx="281.05" dy="453.11" r="27.57"><stop style="stop-color: #9f1ae9;stop-opacity: 1" offset="0%"></stop><stop style="stop-color: #591967;stop-opacity: 1" offset="100%"></stop></radialGradient><path d="M94.03 299.41L91.45 274.3L66.46 276.89L69.05 301.87L94.03 299.41Z" id="a10tUT2ZXL"></path><radialGradient id="gradientd1MzZn5sYq" gradientUnits="userSpaceOnUse" cx="80.25" cy="274.3" dx="80.25" dy="301.87" r="27.57"><stop style="stop-color: #9f1ae9;stop-opacity: 1" offset="0%"></stop><stop style="stop-color: #591967;stop-opacity: 1" offset="100%"></stop></radialGradient><path d="M535.94 566.77L533.35 541.66L508.37 544.24L510.95 569.23L535.94 566.77Z" id="c2fbfyY1jB"></path><radialGradient id="gradientb1bLJz83Lc" gradientUnits="userSpaceOnUse" cx="522.15" cy="541.66" dx="522.15" dy="569.23" r="27.57"><stop style="stop-color: #9f1ae9;stop-opacity: 1" offset="0%"></stop><stop style="stop-color: #591967;stop-opacity: 1" offset="100%"></stop></radialGradient><path d="M382.65 337.11C381.91 330.22 375.75 325.17 368.86 325.91C361.97 326.65 356.92 332.8 357.66 339.69C358.4 346.58 364.55 351.63 371.45 350.89C378.34 350.15 383.38 344 382.65 337.11Z" id="e1uw2kp2W4"></path><radialGradient id="gradienta1b7cKrVCT" gradientUnits="userSpaceOnUse" cx="370.15" cy="325.84" dx="370.15" dy="350.96" r="25.13"><stop style="stop-color: #d6156d;stop-opacity: 1" offset="0%"></stop><stop style="stop-color: #b2115a;stop-opacity: 1" offset="100%"></stop></radialGradient><path d="M596.18 236.68C595.45 229.78 589.29 224.74 582.4 225.48C575.51 226.22 570.46 232.37 571.2 239.26C571.94 246.15 578.09 251.2 584.98 250.46C591.88 249.72 596.92 243.57 596.18 236.68Z" id="f12eQLdYQg"></path><radialGradient id="gradientdy3TGpTOd" gradientUnits="userSpaceOnUse" cx="583.69" cy="225.41" dx="583.69" dy="250.53" r="25.13"><stop style="stop-color: #d6156d;stop-opacity: 1" offset="0%"></stop><stop style="stop-color: #b2115a;stop-opacity: 1" offset="100%"></stop></radialGradient><path d="M145.35 374.65C144.62 367.75 138.46 362.71 131.57 363.45C124.68 364.18 119.63 370.34 120.37 377.23C121.11 384.12 127.26 389.17 134.15 388.43C141.05 387.69 146.09 381.54 145.35 374.65Z" id="a7ibHIcZvH"></path><radialGradient id="gradientbvmJQf3B" gradientUnits="userSpaceOnUse" cx="132.86" cy="363.37" dx="132.86" dy="388.5" r="25.13"><stop style="stop-color: #d6156d;stop-opacity: 1" offset="0%"></stop><stop style="stop-color: #b2115a;stop-opacity: 1" offset="100%"></stop></radialGradient></defs><g><g><use xlink:href="#bamZm9Scl" opacity="1" fill="url(#gradientn2k1zbRKKB)"></use><g><use xlink:href="#bamZm9Scl" opacity="1" fill-opacity="0" stroke="#000000" stroke-width="1" stroke-opacity="0"></use></g></g><g><use xlink:href="#b35TC5lXE" opacity="1" fill="url(#gradientgl3Bche8o)"></use><g><use xlink:href="#b35TC5lXE" opacity="1" fill-opacity="0" stroke="#000000" stroke-width="1" stroke-opacity="0"></use></g></g><g><use xlink:href="#b1U5fOQYvE" opacity="1" fill="url(#gradientaHXspHpJ)"></use><g><use xlink:href="#b1U5fOQYvE" opacity="1" fill-opacity="0" stroke="#000000" stroke-width="1" stroke-opacity="0"></use></g></g><g><use xlink:href="#a1HJO4RpWH" opacity="1" fill="url(#gradienta3WpaV4PJX)"></use><g><use xlink:href="#a1HJO4RpWH" opacity="1" fill-opacity="0" stroke="#000000" stroke-width="1" stroke-opacity="0"></use></g></g><g><use xlink:href="#boOJFLK8l" opacity="1" fill="url(#gradientc15GfzPIWD)"></use><g><use xlink:href="#boOJFLK8l" opacity="1" fill-opacity="0" stroke="#000000" stroke-width="1" stroke-opacity="0"></use></g></g><g><use xlink:href="#b6RF5ANV" opacity="1" fill="url(#gradientc5Q6ZHVyME)"></use><g><use xlink:href="#b6RF5ANV" opacity="1" fill-opacity="0" stroke="#000000" stroke-width="1" stroke-opacity="0"></use></g></g><g><use xlink:href="#a1X65JG813" opacity="1" fill="url(#gradienta1Uz9T0HrR)"></use><g><use xlink:href="#a1X65JG813" opacity="1" fill-opacity="0" stroke="#000000" stroke-width="1" stroke-opacity="0"></use></g></g><g><use xlink:href="#a1iuEOFlYa" opacity="1" fill="url(#gradientb3rHpTb4mc)"></use><g><use xlink:href="#a1iuEOFlYa" opacity="1" fill-opacity="0" stroke="#000000" stroke-width="1" stroke-opacity="0"></use></g></g><g><use xlink:href="#a10tUT2ZXL" opacity="1" fill="url(#gradientd1MzZn5sYq)"></use><g><use xlink:href="#a10tUT2ZXL" opacity="1" fill-opacity="0" stroke="#000000" stroke-width="1" stroke-opacity="0"></use></g></g><g><use xlink:href="#c2fbfyY1jB" opacity="1" fill="url(#gradientb1bLJz83Lc)"></use><g><use xlink:href="#c2fbfyY1jB" opacity="1" fill-opacity="0" stroke="#000000" stroke-width="1" stroke-opacity="0"></use></g></g><g><use xlink:href="#e1uw2kp2W4" opacity="1" fill="url(#gradienta1b7cKrVCT)"></use><g><use xlink:href="#e1uw2kp2W4" opacity="1" fill-opacity="0" stroke="#000000" stroke-width="1" stroke-opacity="0"></use></g></g><g><use xlink:href="#f12eQLdYQg" opacity="1" fill="url(#gradientdy3TGpTOd)"></use><g><use xlink:href="#f12eQLdYQg" opacity="1" fill-opacity="0" stroke="#000000" stroke-width="1" stroke-opacity="0"></use></g></g><g><use xlink:href="#a7ibHIcZvH" opacity="1" fill="url(#gradientbvmJQf3B)"></use><g><use xlink:href="#a7ibHIcZvH" opacity="1" fill-opacity="0" stroke="#000000" stroke-width="1" stroke-opacity="0"></use></g></g></g></svg>
